<svg viewBox="-87.66519823788546 0 175.33039647577093 100" fill="black" xmlns="http://www.w3.org/2000/svg" xmlns:xlink="http://www.w3.org/1999/xlink" version="1.1" class="jsx-2263963463 artboard-inner" style="width: 225px; height: 128.329px; max-height: 100%;">
  <g transform="translate(-127 75.1101321585903) scale(1)">
    <g id="line1">
      <path d="M29.250 6.539Q28.688 7.383 28.160 8.648L28.160 8.648Q27.703 9.387 27.141 10.090L27.141 10.090Q26.613 10.406 26.367 11.004L26.367 11.004Q25.383 11.988 24.293 12.621L24.293 12.621L24.328 12.656Q23.555 12.832 22.922 13.289L22.922 13.289L22.535 13.430Q21.797 13.465 21.094 13.781L21.094 13.781Q20.566 13.852 20.039 13.852L20.039 13.852L19.688 13.852Q19.055 13.852 18.457 13.781L18.457 13.781L18.492 13.852L18.176 13.746L18.105 13.746Q17.613 13.535 16.734 13.289L16.734 13.289L16.066 13.078L15.363 12.867Q14.520 12.480 13.746 11.918L13.746 11.918Q12.691 11.074 11.004 9.035L11.004 9.035L10.617 8.438L10.582 8.438L10.582 8.367Q9.879 7.031 9.422 4.570L9.422 4.570Q9.352 3.902 9.352 3.375L9.352 3.375L9.246 3.340L9.281 2.918L9.352 2.953L9.387 2.496L9.422 2.109Q9.492 1.406 9.703 0.668L9.703 0.668Q10.230-0.914 11.566-3.023L11.566-3.023L11.848-3.375Q12.340-3.867 13.184-4.535L13.184-4.535L13.887-5.063L14.555-5.625L15.223-6.012L15.258-6.082L15.645-6.258Q15.680-6.258 15.715-6.223L15.715-6.223Q16.945-6.750 18.211-6.926L18.211-6.926L18.211-6.961L18.457-6.961L19.336-6.996L20.180-7.066L21.551-7.066Q23.027-6.961 24.574-6.961L24.574-6.961Q26.086-6.961 27.668-7.066L27.668-7.066L28.441-7.066L29.180-7.031L29.918-7.066L30.551-7.066Q30.973-7.031 31.289-7.031L31.289-7.031Q31.641-7.031 31.887-7.066L31.887-7.066L32.063-7.066L32.344-6.996Q32.273-6.539 32.098-5.836L32.098-5.836L31.816-4.641Q31.570-3.445 31.570-2.602L31.570-2.602L31.570-2.250L31.465-1.652Q31.535-1.582 31.535-1.477L31.535-1.477Q31.535-1.371 31.430-1.266L31.430-1.266Q31.113 0.492 30.902 1.547L30.902 1.547L30.938 1.477L30.902 1.617L30.867 1.617L30.832 1.793Q30.516 2.355 30.516 2.988L30.516 2.988L30.305 3.727Q29.953 4.359 29.883 5.027L29.883 5.027Q29.602 5.801 29.250 6.539L29.250 6.539L29.250 6.574Q29.250 6.504 29.285 6.434L29.285 6.434L29.320 6.363Q29.320 6.398 29.250 6.539L29.250 6.539ZM57.164-1.828L57.023-2.461Q57.023-2.813 56.848-3.410L56.848-3.410L56.883-3.375L56.742-4.324Q56.742-4.816 56.566-5.273L56.566-5.273L56.391-6.328L56.391-6.469Q56.391-6.855 56.215-7.242L56.215-7.242L56.004-8.438Q56.004-8.789 55.898-9.141L55.898-9.141L55.723-10.266L55.688-10.266L55.688-10.406Q55.688-10.793 55.547-11.145L55.547-11.145L55.512-11.426L55.441-11.461L55.477-11.566L55.230-13.008L55.195-13.008Q55.195-13.957 54.984-14.449L54.984-14.449L53.965-20.391L53.965-20.637Q53.965-20.918 53.930-21.234L53.930-21.234Q53.824-21.621 53.684-22.043L53.684-22.043L53.508-23.238Q53.543-23.379 53.543-23.520L53.543-23.520Q53.543-23.906 53.332-24.223L53.332-24.223L53.156-25.207L53.156-25.383Q53.156-25.770 52.945-26.402L52.945-26.402L52.629-28.266Q52.664-28.371 52.664-28.477L52.664-28.477Q52.664-28.828 52.488-29.145L52.488-29.145L52.313-30.234L52.313-30.445Q52.313-30.832 52.137-31.184L52.137-31.184L51.961-32.203Q51.996-32.484 51.996-32.836L51.996-32.836Q51.996-33.609 51.785-34.770L51.785-34.770Q51.504-36.070 51.082-37.301L51.082-37.301L50.941-38.109Q50.941-38.742 50.801-39.059L50.801-39.059L50.414-41.238L50.379-41.766L50.309-42.293Q50.238-42.891 50.063-43.313L50.063-43.313L49.887-44.332L49.852-44.789L49.816-45.281L49.711-46.230Q49.535-47.391 49.254-48.094L49.254-48.094L49.078-49.113Q49.113-49.254 49.113-49.430L49.113-49.430Q49.113-49.816 48.902-50.168L48.902-50.168L48.551-52.137Q48.586-52.277 48.586-52.453L48.586-52.453Q48.586-52.805 48.410-53.121L48.410-53.121L48.164-54.387Q48.059-56.215 47.672-57.305L47.672-57.305L47.531-58.113Q47.496-58.746 47.320-59.133L47.320-59.133Q47.074-59.660 46.547-59.766L46.547-59.766Q46.266-59.871 45.984-59.871L45.984-59.871L43.840-59.871L43.910-59.836Q43.734-59.836 43.488-59.871L43.488-59.871L43.102-59.941L42.961-59.941Q42.609-59.941 42.293-59.766L42.293-59.766L41.941-59.625L41.906-59.590L41.695-59.484Q40.992-59.168 40.957-58.395L40.957-58.395L40.922-58.219L40.887-58.008Q40.852-57.656 40.816-57.516L40.816-57.516L40.781-57.551L40.676-56.848Q40.289-55.793 40.289-54.527L40.289-54.527L40.148-53.613L40.219-53.648Q40.219-53.508 40.184-53.332L40.184-53.332L40.113-53.402L40.008-52.770Q39.797-52.383 39.797-51.715L39.797-51.715L39.797-51.539L39.480-49.746L39.586-49.816L39.551-49.676L39.516-49.500L39.480-49.570L39.340-48.762Q39.199-48.480 39.129-48.094L39.129-48.094L39.129-47.777L39.094-47.426L39.059-47.215L39.059-47.039L39.023-46.934Q38.777-46.090 38.777-45.492L38.777-45.492L38.637-44.543L38.531-43.945L38.285-42.574Q38.074-42.047 37.934-41.133L37.934-41.133Q37.793-40.359 37.793-39.656L37.793-39.656L37.582-38.285L37.582-38.215L37.512-37.969L37.301-36.949L37.090-35.895Q36.844-34.664 36.844-33.820L36.844-33.820L36.422-31.395Q36.281-30.656 36.070-29.180L36.070-29.180L35.438-25.488Q35.227-24.645 35.051-23.273L35.051-23.273L34.875-22.148L34.699-21.059L34.699-20.918L34.488-20.039L34.277-19.195Q34.102-18.316 34.102-17.648L34.102-17.648L34.102-17.438L33.363-13.078L33.328-13.043L32.520-13.043Q32.379-13.078 32.238-13.078L32.238-13.078Q32.133-13.078 31.992-13.043L31.992-13.043L30.621-13.043Q29.180-13.184 27.703-13.184L27.703-13.184Q26.227-13.184 24.680-13.043L24.680-13.043L23.766-13.043Q23.520-13.078 23.168-13.078L23.168-13.078Q22.852-13.078 22.465-13.043L22.465-13.043L21.867-13.043L21.129-13.113L20.355-13.148Q19.406-13.184 18.633-13.184L18.633-13.184Q16.629-13.078 15.574-12.410L15.574-12.410Q14.625-12.164 13.781-11.813L13.781-11.813L13.816-11.813Q13.078-11.672 12.480-11.215L12.480-11.215L11.672-10.793Q10.969-10.441 10.336-9.949L10.336-9.949L10.195-9.844L9.879-9.563L9.844-9.563L9.492-9.281L9.527-9.246L9.246-9.035L9.176-9.035Q8.473-8.438 7.770-7.699L7.770-7.699Q7.242-7.418 7.031-6.855L7.031-6.855L6.961-6.750L6.961-6.715Q6.855-6.469 6.680-6.258L6.680-6.258L6.645-6.328Q6.258-5.836 5.836-5.168L5.836-5.168Q5.484-4.852 5.203-4.289L5.203-4.289L4.992-3.762L4.816-3.270L4.535-2.637Q4.184-2.145 4.148-1.582L4.148-1.582L3.938-0.879L4.008-0.809L3.938-0.563L3.867-0.598L3.762-0.211Q3.586 0.352 3.516 0.668L3.516 0.668Q3.445 0.949 3.445 1.230L3.445 1.230Q3.445 1.406 3.480 1.582L3.480 1.582L3.375 2.566Q3.270 2.848 3.270 3.164L3.270 3.164Q3.270 3.480 3.375 3.797L3.375 3.797Q3.410 6.223 4.184 8.543L4.184 8.543Q4.254 8.965 4.465 9.316L4.465 9.316Q5.379 11.672 6.961 13.641L6.961 13.641Q7.277 14.238 7.980 14.906L7.980 14.906L8.613 15.469L9.246 15.996Q9.598 16.348 10.020 16.629L10.020 16.629Q10.688 17.086 11.391 17.508L11.391 17.508Q11.953 18.105 12.762 18.246L12.762 18.246L13.219 18.457Q13.711 18.949 14.414 18.949L14.414 18.949L14.520 18.949L15.328 19.230Q16.137 19.582 17.543 19.688L17.543 19.688L17.965 19.758Q18.563 19.863 18.914 19.863L18.914 19.863Q19.125 19.863 19.230 19.828L19.230 19.828L19.898 19.828Q20.918 19.828 21.902 19.688L21.902 19.688Q23.098 19.582 23.555 19.371L23.555 19.371L24.223 19.195Q25.102 19.020 25.945 18.527L25.945 18.527Q26.859 18.105 27.809 17.508L27.809 17.508Q28.441 17.262 28.863 16.770L28.863 16.770L29.566 16.207L29.566 16.137L29.813 15.926L29.813 15.961Q31.289 14.625 32.520 12.867L32.520 12.867L32.520 12.832Q32.520 12.797 32.590 12.762L32.590 12.762Q33.012 12.129 33.469 11.391L33.469 11.391Q33.785 11.039 34.031 10.477L34.031 10.477L34.277 9.984L34.453 9.492Q35.086 8.227 35.578 6.820L35.578 6.820Q36.141 6.082 36.457 4.605L36.457 4.605Q36.598 4.078 36.703 3.340L36.703 3.340L36.773 2.707L36.879 2.180L37.020 1.441L36.984 1.371L37.020 1.160L37.055 1.195L37.090 1.125L37.020 1.090L37.055 1.020L37.090 0.984L37.230 0.281L37.160 0.316L37.195 0.035L37.266 0.105L37.336-0.422L37.441-0.984L37.371-1.020L37.441-1.195L37.477-1.230L37.512-1.371Q37.828-2.355 37.828-3.059L37.828-3.059L37.828-3.305L37.969-4.289L37.863-4.148L37.969-4.535L38.004-4.500L38.109-5.063L38.074-5.098L38.145-5.379L38.180-5.449Q38.355-6.012 38.355-6.574L38.355-6.574L38.426-7.066L39.023-7.066Q39.234-6.996 39.445-6.996L39.445-6.996Q39.691-6.996 39.902-7.066L39.902-7.066L41.027-7.066Q41.730-6.996 42.363-6.996L42.363-6.996Q42.996-6.996 43.559-7.066L43.559-7.066L44.438-7.066Q44.508-7.137 44.613-7.137L44.613-7.137Q44.719-7.137 44.824-7.066L44.824-7.066L45.141-7.066L45.070-7.172L45.527-7.172L45.527-7.102L45.703-7.172Q46.090-7.172 46.230-7.488L46.230-7.488Q46.688-7.945 46.688-8.508L46.688-8.508Q46.688-8.648 46.652-8.789L46.652-8.789L46.512-9.738L46.441-9.598L46.301-10.301L46.441-10.266L46.230-11.426L46.230-11.531Q46.230-11.848 46.055-12.164L46.055-12.164Q45.633-13.043 44.684-13.043L44.684-13.043L44.227-13.043Q43.980-13.113 43.699-13.113L43.699-13.113L43.488-13.113L43.137-13.078L42.750-13.043L40.641-13.043L40.148-13.008L40.184-13.043L39.691-13.043Q39.586-13.078 39.445-13.113L39.445-13.113L39.621-14.238Q39.691-14.484 39.832-15.047L39.832-15.047L40.043-15.891Q40.219-16.664 40.219-17.191L40.219-17.191Q40.219-17.402 40.184-17.543L40.184-17.543L40.359-18.527L40.324-18.527Q40.570-19.266 40.641-20.320L40.641-20.320L40.852-21.480L40.992-21.938L41.098-22.465Q41.203-22.852 41.203-23.168L41.203-23.168Q41.203-23.344 41.168-23.484L41.168-23.484L41.484-25.453Q41.660-25.770 41.660-26.156L41.660-26.156L41.660-26.367L41.836-27.492Q42.188-28.582 42.188-29.496L42.188-29.496L42.363-30.727L42.328-30.832L42.469-31.359L42.504-31.359L42.609-32.063L42.609-32.414L42.645-32.379L42.785-33.223Q42.996-33.574 42.996-33.961L42.996-33.961Q42.996-34.137 42.961-34.313L42.961-34.313L43.172-35.367Q43.348-35.789 43.348-36.246L43.348-36.246L43.348-36.422L43.664-38.355Q43.910-39.340 43.945-40.184L43.945-40.184L44.156-41.449L44.262-41.273L44.332-41.133L44.613-39.375L44.684-39.375L44.719-39.410L44.789-39.164L44.719-39.164Q44.648-39.164 44.648-39.234L44.648-39.234L45-37.160Q44.965-37.020 44.965-36.879L44.965-36.879Q44.965-36.668 45.035-36.457L45.035-36.457L45.141-36.141L45.246-35.789L45.809-32.379L45.844-32.344L45.914-32.098Q45.984-31.957 46.020-31.816L46.020-31.816L45.914-31.816L45.984-31.359L46.055-31.289L46.055-31.254L46.020-31.219L46.055-31.078L46.055-30.902Q46.055-30.727 46.090-30.516L46.090-30.516L46.230-29.953L46.582-27.984Q46.582-27 46.723-25.980L46.723-25.980Q46.934-24.750 47.250-24.082L47.250-24.082L47.953-20.109Q47.953-19.125 48.305-17.895L48.305-17.895L48.445-17.121L48.480-16.770L48.480-16.383Q48.516-15.891 48.551-15.504L48.551-15.504Q48.691-14.520 48.973-13.992L48.973-13.992L49.219-12.691Q49.219-12.410 49.289-12.164L49.289-12.164L50.133-7.348L50.168-7.383Q50.203-7.207 50.238-7.066L50.238-7.066L50.309-6.891Q50.273-6.891 50.273-6.715L50.273-6.715Q50.273-6.504 50.344-6.012L50.344-6.012L50.414-5.660L50.449-5.379Q50.555-5.027 50.555-4.992L50.555-4.992L50.625-4.992L50.625-4.852L50.555-4.852L51.082-1.934L51.082-1.723Q51.082-1.055 51.434-0.738L51.434-0.738Q51.645-0.387 52.031-0.211L52.031-0.211Q52.277-0.035 52.840-0.035L52.840-0.035Q53.086-0.035 53.402-0.070L53.402-0.070L55.020-0.070Q55.301-0.035 55.547-0.035L55.547-0.035Q56.039-0.035 56.461-0.211L56.461-0.211Q57.164-0.527 57.164-1.230L57.164-1.230L57.164-1.371Q57.199-1.512 57.199-1.617L57.199-1.617Q57.199-1.723 57.164-1.828L57.164-1.828Z"></path>
      <path d="M82.125-8.895L82.125-8.578L82.090-8.191L82.020-7.805Q81.949-7.383 81.773-7.102L81.773-7.102L81.633-6.645L81.563-6.715L81.492-6.504L81.598-6.574L81.527-6.363L81.492-6.398L81.492-6.223Q81.492-5.590 81.035-5.133L81.035-5.133Q80.438-3.938 79.523-2.918L79.523-2.918L79.523-2.988L79.207-2.672L79.207-2.602Q78.926-2.320 78.539-2.004L78.539-2.004Q78.293-1.688 77.977-1.512L77.977-1.512Q77.590-1.266 77.168-0.984L77.168-0.984Q76.043-0.035 74.250 0.141L74.250 0.141Q73.793 0.246 73.266 0.316L73.266 0.316Q72.844 0.387 72.352 0.387L72.352 0.387L72.070 0.387Q70.980 0.387 69.961 0.141L69.961 0.141L69.363 0Q68.871-0.141 68.414-0.352L68.414-0.352Q67.711-0.563 67.113-1.020L67.113-1.020L67.078-0.984L66.551-1.371Q66.059-1.582 65.742-1.969L65.742-1.969Q64.863-2.707 64.230-3.621L64.230-3.621Q62.719-4.922 62.473-7.242L62.473-7.242Q62.156-8.508 62.156-9.773L62.156-9.773L62.156-10.301Q62.051-10.582 62.051-10.828L62.051-10.828Q62.051-11.074 62.156-11.320L62.156-11.320L62.156-11.672Q62.191-11.707 62.191-11.742L62.191-11.742Q62.191-11.777 62.156-11.777L62.156-11.777L62.156-12.199L62.191-12.234L62.156-12.270L62.156-12.973L62.121-13.359L62.051-13.676L62.051-13.852Q62.051-14.168 62.156-14.379L62.156-14.379L62.156-14.906L62.262-14.766Q62.262-15.047 62.227-15.328L62.227-15.328L62.156-15.258L62.156-16.348L62.086-17.086L62.051-17.895Q62.051-18.809 62.156-19.406L62.156-19.406L62.156-19.617L62.191-19.652Q62.227-19.793 62.227-19.934L62.227-19.934L62.156-19.969L62.156-20.004L62.227-20.004L62.227-20.285L62.156-20.215L62.156-21.551Q62.051-21.797 62.051-22.078L62.051-22.078Q62.051-22.359 62.156-22.676L62.156-22.676L62.156-23.590Q61.945-24.434 61.945-25.699L61.945-25.699L61.945-26.051Q61.980-26.648 62.016-27.352L62.016-27.352Q62.086-27.844 62.156-28.547L62.156-28.547L62.156-29.883Q62.051-30.375 62.051-30.867L62.051-30.867Q62.051-32.309 62.824-33.961L62.824-33.961Q63.246-35.051 63.914-36.070L63.914-36.070Q64.230-36.563 64.828-37.230L64.828-37.230Q65.109-37.723 65.602-37.969L65.602-37.969Q66.129-38.461 66.691-38.848L66.691-38.848Q67.535-39.586 68.414-39.727L68.414-39.727Q68.836-39.902 69.293-40.043L69.293-40.043Q70.102-40.430 70.945-40.430L70.945-40.430L71.086-40.430Q71.543-40.465 72.035-40.465L72.035-40.465L72.633-40.465Q72.949-40.465 73.617-40.324L73.617-40.324L73.582-40.359L73.863-40.324L74.215-40.254Q74.637-40.219 74.953-40.113L74.953-40.113Q75.832-39.938 76.219-39.586L76.219-39.586Q77.238-39.094 78.117-38.426L78.117-38.426L78.082-38.391L78.434-38.145L78.469-38.180L78.680-37.969Q79.313-37.582 79.910-36.914L79.910-36.914Q80.578-36.141 80.719-35.543L80.719-35.543Q80.965-35.086 81.176-34.664L81.176-34.664Q81.563-34.277 81.563-33.750L81.563-33.750L81.563-33.680Q81.738-33.188 81.844-32.625L81.844-32.625Q81.984-32.379 81.984-32.098L81.984-32.098Q81.984-31.957 81.949-31.816L81.949-31.816Q81.879-31.430 81.633-31.113L81.633-31.113Q81.422-30.586 80.965-30.586L80.965-30.586L80.895-30.586Q80.648-30.516 80.438-30.516L80.438-30.516L77.379-30.516Q77.027-30.516 76.676-30.691L76.676-30.691Q76.359-30.797 76.219-31.078L76.219-31.078Q76.043-31.289 75.938-31.570L75.938-31.570L75.691-32.063Q75.445-32.730 75.164-33.047L75.164-33.047Q74.672-33.398 74.285-33.855L74.285-33.855Q73.898-34.102 73.441-34.242L73.441-34.242Q72.668-34.348 71.297-34.418L71.297-34.418L71.262-34.418L70.945-34.383L70.980-34.313L70.910-34.313L70.945-34.348L70.770-34.242Q69.398-33.750 68.660-32.449L68.660-32.449L68.520-32.098Q68.133-31.289 68.133-30.375L68.133-30.375L68.133-30.305Q68.098-30.340 68.063-30.340L68.063-30.340L68.027-30.305L68.027-29.848L68.133-29.813L68.133-28.828Q68.309-28.266 68.309-27.281L68.309-27.281Q68.309-26.297 68.133-25.734L68.133-25.734L68.133-24.645Q68.238-24.152 68.238-23.484L68.238-23.484L68.168-22.887L68.133-22.324L68.133-21.270Q68.098-21.234 68.098-21.164L68.098-21.164Q68.098-21.129 68.133-21.059L68.133-21.059L68.133-20.531Q68.309-20.039 68.309-19.055L68.309-19.055Q68.273-18.141 68.133-17.543L68.133-17.543L68.133-16.805L68.027-16.875Q68.027-16.734 68.063-16.594L68.063-16.594L68.133-16.629L68.133-16.418Q68.238-16.207 68.238-15.926L68.238-15.926Q68.238-15.645 68.133-15.328L68.133-15.328L68.133-13.359L68.098-13.359Q68.238-13.078 68.238-12.762L68.238-12.762Q68.238-12.516 68.133-12.199L68.133-12.199L68.133-10.055L68.273-9.070Q68.344-8.473 68.449-8.086L68.449-8.086Q68.871-7.137 69.645-6.504L69.645-6.504Q71.227-5.625 72.246-5.590L72.246-5.590Q72.633-5.625 73.055-5.695L73.055-5.695Q73.512-5.977 74.039-6.117L74.039-6.117Q74.953-6.609 75.516-7.488L75.516-7.488Q75.797-8.332 76.113-10.336L76.113-10.336L76.113-14.730L76.148-14.730L76.113-15.152L76.113-15.293L76.043-15.574L76.008-15.820L76.008-15.961Q76.008-16.172 76.113-16.383L76.113-16.383L76.113-17.051L75.094-17.051L75.094-17.086L74.707-17.051L72.633-17.051L72.668-17.086L72.492-17.086L72.492-17.051Q72.281-17.086 72.070-17.156L72.070-17.156Q71.367-17.332 71.227-18.035L71.227-18.035Q71.121-18.281 71.121-18.563L71.121-18.563L71.121-20.918Q71.051-21.234 71.051-21.480L71.051-21.480Q71.051-21.867 71.227-22.078L71.227-22.078Q71.473-22.711 72.070-22.922L72.070-22.922L71.930-22.781Q72.316-23.027 72.738-23.027L72.738-23.027L73.230-23.027L73.266-22.957L73.652-22.957L73.723-23.027L74.074-23.027Q74.355-23.133 74.602-23.133L74.602-23.133Q74.883-23.133 75.129-23.027L75.129-23.027L75.270-22.992L75.234-23.027L76.184-23.027Q76.359-23.063 76.570-23.063L76.570-23.063L77.098-23.063L77.379-23.027L80.016-23.027L80.086-22.957L80.262-22.957L80.297-23.027L80.578-23.027Q81.070-23.027 81.492-22.711L81.492-22.711Q82.125-22.289 82.125-21.375L82.125-21.375Q82.125-21.199 82.090-21.023L82.090-21.023L82.090-17.859Q82.125-17.684 82.125-17.473L82.125-17.473Q82.125-17.297 82.090-17.086L82.090-17.086L82.090-15.680Q82.125-15.574 82.125-15.434L82.125-15.434Q82.125-15.328 82.090-15.223L82.090-15.223L82.090-13.289L82.020-13.324L82.020-13.148L82.090-13.219L82.090-12.797L82.055-12.797L82.055-12.445L82.090-12.480L82.090-11.004Q82.125-10.793 82.125-10.547L82.125-10.547Q82.125-10.336 82.090-10.125L82.090-10.125L82.090-9.563L82.055-9.211L82.125-8.895Z"></path>
      <path d="M95.766-37.195L95.766-37.125Q95.695-37.020 95.695-36.914L95.695-36.914Q95.695-36.844 95.730-36.738L95.730-36.738Q95.520-35.227 94.219-34.418L94.219-34.418L94.254-34.488L94.113-34.418L94.148-34.418Q93.375-33.961 92.496-33.961L92.496-33.961L92.109-33.961Q90.598-33.961 89.613-35.684L89.613-35.684Q89.086-36.563 89.086-37.301L89.086-37.301Q89.086-38.074 89.648-38.672L89.648-38.672Q90.176-39.691 91.195-40.148L91.195-40.148L91.160-40.078L91.406-40.184L91.406-40.219L91.828-40.359Q92.145-40.500 92.531-40.500L92.531-40.500Q92.953-40.500 93.410-40.324L93.410-40.324Q94.184-40.078 94.781-39.516L94.781-39.516Q95.203-39.199 95.449-38.742L95.449-38.742Q95.695-38.320 95.695-37.934L95.695-37.934L95.695-37.758Q95.766-37.477 95.766-37.195L95.766-37.195ZM95.625-27.492L95.625-27.492Q95.625-27.281 95.590-27.105L95.590-27.105L95.520-26.824L95.520-26.016Q95.555-25.805 95.555-25.559L95.555-25.559Q95.555-25.277 95.484-24.961L95.484-24.961L95.520-24.996L95.520-23.941Q95.660-23.449 95.660-22.465L95.660-22.465Q95.660-21.480 95.520-20.988L95.520-20.988L95.520-19.266L95.484-19.090L95.449-18.949L95.520-18.984L95.520-18.141L95.484-18.176L95.414-18.105L95.449-17.895Q95.484-17.754 95.484-17.578L95.484-17.578L95.520-17.578L95.520-14.871L95.484-14.871L95.520-14.203Q95.520-13.746 95.484-13.711L95.484-13.711L95.555-12.797L95.555-12.445Q95.555-12.129 95.520-11.883L95.520-11.883L95.520-11.074Q95.555-10.863 95.555-10.582L95.555-10.582Q95.555-10.266 95.520-9.879L95.520-9.879L95.520-9.246Q95.590-8.578 95.590-8.016L95.590-8.016Q95.590-7.453 95.520-6.961L95.520-6.961Q95.520-5.238 95.484-5.238L95.484-5.238L95.520-5.203L95.520-5.063Q95.695-4.570 95.695-3.551L95.695-3.551L95.695-2.918Q95.660-1.301 95.309-0.844L95.309-0.844Q95.098-0.492 94.781-0.281L94.781-0.281Q94.500-0.035 93.762-0.035L93.762-0.035Q93.516-0.035 93.199-0.070L93.199-0.070L92.637-0.070L92.145-0.035L91.688-0.070L91.020-0.070Q90.703-0.070 90.422-0.176L90.422-0.176Q89.824-0.316 89.684-0.914L89.684-0.914Q89.543-1.230 89.543-1.582L89.543-1.582L89.543-2.109Q89.402-2.496 89.402-3.023L89.402-3.023L89.402-3.234L89.473-3.832L89.543-4.395L89.543-6.961L89.473-7.277L89.438-7.664L89.367-8.508L89.367-8.789Q89.367-9.563 89.543-10.055L89.543-10.055L89.543-10.512L89.613-10.441Q89.613-10.652 89.578-10.863L89.578-10.863L89.543-10.863L89.543-11.074Q89.367-11.566 89.367-12.586L89.367-12.586Q89.367-13.570 89.543-14.098L89.543-14.098L89.543-20.039Q89.473-20.285 89.473-20.496L89.473-20.496Q89.473-20.742 89.543-20.953L89.543-20.953L89.543-23.238Q89.578-23.344 89.578-23.414L89.578-23.414Q89.578-23.520 89.543-23.555L89.543-23.555L89.543-23.695L89.473-24.047L89.438-24.328L89.438-24.469Q89.438-24.750 89.543-24.996L89.543-24.996L89.543-25.770L89.613-25.805L89.578-26.016L89.578-26.262L89.543-26.262L89.543-27.035Q89.508-27.211 89.508-27.387L89.508-27.387Q89.508-27.598 89.543-27.773L89.543-27.773L89.543-29.109Q89.508-29.285 89.508-29.461L89.508-29.461Q89.508-29.848 89.754-30.234L89.754-30.234Q90.176-30.973 91.020-30.973L91.020-30.973L91.441-30.973Q91.652-31.008 91.863-31.008L91.863-31.008L92.426-31.008L92.742-30.973L93.938-30.973L93.902-30.938L94.008-30.938L93.973-30.973L94.008-30.973Q94.641-30.973 95.063-30.516L95.063-30.516Q95.520-30.094 95.520-29.461L95.520-29.461Q95.520-28.020 95.484-28.020L95.484-28.020L95.590-27.809Q95.625-27.668 95.625-27.492Z"></path>
      <path d="M119.285-3.234L119.285-1.688Q119.285-1.371 119.180-1.090L119.180-1.090Q119.039-0.457 118.371-0.246L118.371-0.246Q118.055-0.141 117.738-0.141L117.738-0.141Q117.492-0.141 117.211-0.211L117.211-0.211L117.211-0.176L116.332-0.176Q116.051-0.070 115.805-0.070L115.805-0.070Q115.523-0.070 115.277-0.176L115.277-0.176L114.117-0.176Q112.781 0 111.621 0L111.621 0Q110.461 0 109.441-0.176L109.441-0.176L108.949-0.176L109.020-0.246L108.563-0.246L108.527-0.211L108.598-0.176L107.719-0.176L107.789-0.246L107.648-0.246L107.684-0.176L106.840-0.176L106.770-0.246Q106.523-0.211 105.996-0.176L105.996-0.176L105.539-0.105L105.082-0.070Q104.766-0.035 104.484-0.035L104.484-0.035Q103.781-0.035 103.395-0.246L103.395-0.246Q102.691-0.457 102.445-1.125L102.445-1.125Q102.199-1.477 102.199-2.320L102.199-2.320L102.199-2.531Q102.199-2.848 102.270-3.340L102.270-3.340L102.305-3.691L102.340-4.008L102.340-5.906L102.445-5.801L102.445-5.836Q102.445-6.082 102.340-6.328L102.340-6.328L102.340-6.398Q102.094-7.242 102.094-8.895L102.094-8.895Q102.094-10.617 102.340-11.391L102.340-11.391L102.340-12.094L102.410-12.094L102.410-12.270L102.340-12.340L102.340-12.410Q102.270-12.691 102.270-12.938L102.270-12.938Q102.270-13.184 102.340-13.430L102.340-13.430L102.340-14.344L102.410-14.273L102.340-14.625Q102.270-15.117 102.270-15.645L102.270-15.645Q102.270-16.137 102.340-16.664L102.340-16.664L102.340-17.367Q102.270-17.789 102.270-18.105L102.270-18.105Q102.270-18.387 102.340-18.563L102.340-18.563L102.340-20.355Q102.305-20.848 102.305-21.199L102.305-21.199Q102.305-21.551 102.340-21.762L102.340-21.762L102.340-22.570Q102.305-22.887 102.305-23.168L102.305-23.168Q102.305-23.484 102.340-23.766L102.340-23.766L102.340-24.961Q102.305-26.297 102.305-27.316L102.305-27.316Q102.305-28.371 102.340-29.109L102.340-29.109L102.340-29.602L102.305-30.234L102.234-30.902L102.164-32.273L102.164-32.730Q102.164-34.031 102.340-34.910L102.340-34.910L102.340-36.633L102.234-37.688L102.234-37.898Q102.234-38.602 102.445-39.023L102.445-39.023Q102.656-39.691 103.289-39.938L103.289-39.938Q103.676-40.148 104.344-40.148L104.344-40.148Q104.906-40.113 105.434-39.973L105.434-39.973L105.398-40.043L105.926-40.043Q105.855-40.008 105.785-39.938L105.785-39.938L105.961-39.938Q106.102-39.938 106.277-39.973L106.277-39.973L106.207-40.043L106.523-40.043Q106.664-40.078 106.805-40.078L106.805-40.078Q107.121-40.078 107.402-39.902L107.402-39.902Q107.789-39.727 108.035-39.445L108.035-39.445L107.930-39.551L107.895-39.516L108.176-39.199L108.211-39.129Q108.387-38.777 108.422-38.180L108.422-38.180Q108.422-37.723 108.316-37.160L108.316-37.160L108.316-34.172Q108.457-33.469 108.457-32.906L108.457-32.906Q108.457-32.344 108.316-31.922L108.316-31.922L108.316-31.641L108.281-31.605L108.246-31.359L108.316-31.254L108.316-27.105Q108.387-26.684 108.387-26.367L108.387-26.367Q108.387-26.051 108.316-25.840L108.316-25.840L108.316-24.996Q108.316-25.066 108.246-25.066L108.246-25.066L108.246-24.645L108.316-24.715L108.316-24.012L108.246-24.082L108.246-23.484L108.316-23.520L108.316-21.340L108.281-21.340L108.281-21.199L108.316-21.199L108.316-20.883Q108.387-20.637 108.387-20.355L108.387-20.355Q108.387-20.074 108.316-19.723L108.316-19.723L108.316-18.949L108.281-18.844L108.246-18.809L108.316-18.703L108.316-16.875L108.281-16.910L108.281-16.770L108.316-16.770L108.316-15.820Q108.387-15.574 108.387-15.188L108.387-15.188L108.387-14.941L108.316-14.027L108.316-13.008L108.387-12.516L108.457-11.988Q108.527-11.285 108.563-10.828L108.563-10.828L108.563-10.336Q108.563-9.281 108.316-8.684L108.316-8.684L108.316-8.297L108.281-8.402L108.246-8.402L108.246-7.980Q108.316-8.016 108.316-8.086L108.316-8.086L108.316-7.629Q108.387-7.418 108.387-7.207L108.387-7.207Q108.387-6.996 108.281-6.750L108.281-6.750L108.316-6.785L108.316-6.152L109.969-6.152Q110.145-6.223 110.391-6.223L110.391-6.223L110.566-6.223L110.883-6.188L111.199-6.152L112.078-6.152L112.711-6.188L113.203-6.188Q113.660-6.188 114.012-6.152L114.012-6.152L116.156-6.152Q116.578-6.293 117.035-6.293L117.035-6.293Q117.457-6.293 117.879-6.188L117.879-6.188Q118.969-5.941 119.180-5.238L119.180-5.238Q119.285-4.957 119.285-4.676L119.285-4.676L119.285-4.289L119.355-3.762L119.355-3.621Q119.355-3.410 119.285-3.234L119.285-3.234Z"></path>
      <path d="M143.121-4.605L143.156-4.219L143.156-3.586Q143.156-3.340 143.121-3.164L143.121-3.164L143.121-2.637L143.086-2.602L143.121-2.566L143.121-1.617Q143.121-1.020 142.734-0.598L142.734-0.598Q142.277-0.070 141.504-0.070L141.504-0.070Q141.258-0.070 141.012-0.105L141.012-0.105L139.676-0.105L137.988-0.070L136.301 0L135.527 0Q134.016 0 132.926-0.105L132.926-0.105L132.363-0.105Q131.801-0.070 131.309-0.070L131.309-0.070Q130.816-0.070 130.395-0.105L130.395-0.105L129.023-0.105Q128.848-0.070 128.672-0.070L128.672-0.070Q128.496-0.070 128.285-0.105L128.285-0.105L127.652-0.105Q126.492-0.105 126.105-1.688L126.105-1.688Q125.930-2.320 125.930-2.918L125.930-2.918Q125.930-3.586 126.176-4.184L126.176-4.184Q126.246-4.324 126.246-4.395L126.246-4.395Q126.246-4.500 126.176-4.570L126.176-4.570L126.176-8.402Q126.070-9.211 126.035-9.949L126.035-9.949Q126.035-10.898 126.176-11.496L126.176-11.496L126.176-12.234Q126.105-12.621 126.105-12.902L126.105-12.902Q126.105-13.219 126.176-13.395L126.176-13.395L126.176-13.430Q126.281-13.641 126.281-13.922L126.281-13.922L126.176-13.887L126.176-14.906Q126.176-15.152 126.211-15.539L126.211-15.539L126.176-15.574L126.176-16.418Q126.035-16.945 126.035-17.613L126.035-17.613L126.105-18.211L126.176-18.773L126.176-19.371L126.105-19.898L126.070-20.461Q126.070-21.094 126.176-21.586L126.176-21.586L126.176-26.789L126.211-26.789L126.246-27L126.176-27L126.176-29.637Q126.105-30.023 126.105-30.305L126.105-30.305Q126.105-30.621 126.176-30.797L126.176-30.797L126.176-31.887Q125.965-32.484 125.965-33.504L125.965-33.504L125.965-34.031Q126-34.453 126.070-35.191L126.070-35.191L126.141-35.754L126.176-36.246L126.176-37.652Q126.141-37.969 126.141-38.215L126.141-38.215Q126.141-38.953 126.387-39.234L126.387-39.234Q126.598-39.586 126.949-39.797L126.949-39.797L126.949-39.762L127.090-39.867L127.230-39.902Q127.547-40.043 128.109-40.043L128.109-40.043L129.023-39.973L130.219-39.973L130.570-40.008L130.922-40.043L131.695-40.113L131.977-40.113Q132.680-40.113 133.137-39.973L133.137-39.973L133.910-39.973Q133.910-39.902 133.945-39.867L133.945-39.867L134.227-39.867L134.191-39.973L134.754-39.973Q134.824-39.902 134.895-39.902L134.895-39.902Q134.965-39.902 135.035-39.973L135.035-39.973L135.105-39.973Q135.492-40.113 136.055-40.113L136.055-40.113L136.266-40.113L136.863-40.043L137.391-39.973L139.078-39.973L139.535-40.008Q139.781-40.008 139.992-39.973L139.992-39.973L141.574-39.973Q141.996-39.973 142.348-39.762L142.348-39.762Q142.734-39.551 142.910-39.199L142.910-39.199Q143.191-38.848 143.191-38.355L143.191-38.355Q143.191-38.145 143.121-37.898L143.121-37.898L143.121-36.492Q143.086-36.527 143.051-36.527L143.051-36.527Q143.016-36.527 142.980-36.457L142.980-36.457L142.980-36.387L143.121-36.281L143.121-35.473Q143.121-35.297 143.051-35.086L143.051-35.086Q142.945-34.242 142.242-34.137L142.242-34.137Q141.926-33.996 141.609-33.996L141.609-33.996L141.082-33.996Q140.871-33.926 140.590-33.926L140.590-33.926Q140.309-33.926 139.957-33.996L139.957-33.996L138.516-33.996L138.445-34.066L137.953-34.066L137.988-33.996L132.293-33.996L132.152-33.855L132.152-33.504L131.977-33.574L132.012-33.363L132.012-33.223L132.047-33.082L132.152-33.082L132.152-32.309L132.082-32.344L132.082-32.168L132.152-32.238L132.117-31.711Q132.223-31.219 132.223-30.902L132.223-30.902Q132.223-30.656 132.152-30.480L132.152-30.480L132.152-29.496L132.117-29.602Q132.258-29.074 132.258-28.441L132.258-28.441Q132.258-27.914 132.152-27.352L132.152-27.352L132.152-26.016L134.578-26.016L134.895-26.051L135.246-26.086L135.422-26.086Q135.703-26.086 135.914-26.016L135.914-26.016L135.984-26.016L135.984-25.980L136.336-25.910L136.266-26.016L137.074-26.016Q137.320-26.086 137.637-26.086L137.637-26.086L138.199-26.016L138.621-26.016Q138.938-26.016 139.254-25.875L139.254-25.875L139.359-25.805Q140.133-25.383 140.133-24.539L140.133-24.539L140.133-22.008Q140.203-21.797 140.203-21.621L140.203-21.621Q140.203-21.270 139.992-20.918L139.992-20.918Q139.641-20.180 138.867-20.074L138.867-20.074Q138.621-20.004 138.234-20.004L138.234-20.004L137.918-20.039L136.090-20.039Q135.633-19.969 135.070-19.969L135.070-19.969Q134.543-19.969 133.945-20.039L133.945-20.039L132.785-20.039L132.715-20.145L132.645-20.250L132.363-20.039L132.152-20.039L132.152-19.230Q132.188-19.090 132.188-18.879L132.188-18.879L132.152-18.492L132.152-17.719Q132.258-17.016 132.258-16.453L132.258-16.453Q132.258-15.891 132.152-15.504L132.152-15.504L132.152-14.836L132.117-14.766L132.117-14.414L132.152-10.582Q132.258-10.336 132.258-10.090L132.258-10.090Q132.258-9.809 132.152-9.527L132.152-9.527L132.152-8.402L132.223-8.016L132.258-7.559L132.258-7.348Q132.258-6.926 132.152-6.715L132.152-6.715L132.152-6.082L132.996-6.082Q133.313-6.117 133.734-6.117L133.734-6.117L134.156-6.117L134.719-6.047L135.281-6.012L135.141-6.082L136.828-6.082Q137.004-6.117 137.250-6.117L137.250-6.117L137.918-6.117L138.270-6.082L141.609-6.082Q142.840-6.082 143.086-4.887L143.086-4.887Q143.121-4.746 143.121-4.605L143.121-4.605Z"></path>
    </g>
  </g>
</svg>
